<?xml version="1.0" encoding="UTF-8"?>
<!-- CherryGit icon - Apple macOS safe zone: arte a 824x824 centrado en 1024x1024 (~100px padding) -->
<svg xmlns="http://www.w3.org/2000/svg" viewBox="0 0 1024 1024" width="1024" height="1024">
  <defs>
    <linearGradient id="bgB" x1="0" y1="0" x2="0" y2="1">
      <stop offset="0%" stop-color="#ff4757"/>
      <stop offset="100%" stop-color="#b00020"/>
    </linearGradient>
    <radialGradient id="cherryB" cx="0.3" cy="0.3" r="0.8">
      <stop offset="0%" stop-color="#ffffff"/>
      <stop offset="20%" stop-color="#ffdddd"/>
      <stop offset="60%" stop-color="#f1f3f5"/>
      <stop offset="100%" stop-color="#dee2e6"/>
    </radialGradient>
    <filter id="shadowB" x="-20%" y="-20%" width="140%" height="140%">
      <feDropShadow dx="0" dy="12" stdDeviation="18" flood-color="#000000" flood-opacity="0.35"/>
    </filter>
  </defs>

  <!-- Safe zone: todo el arte escalado 0.805 y centrado => 824x824 dentro del canvas 1024 -->
  <g transform="translate(100, 100) scale(0.805)">
    <rect width="1024" height="1024" rx="230" ry="230" fill="url(#bgB)"/>

    <line x1="100" y1="600" x2="924" y2="600" stroke="#ffffff" stroke-width="12" stroke-linecap="round" opacity="0.85"/>

    <g>
      <circle cx="100" cy="600" r="36" fill="#ffffff" opacity="0.95"/>
      <circle cx="100" cy="600" r="36" fill="none" stroke="#b00020" stroke-width="6" opacity="0.6"/>

      <circle cx="236" cy="600" r="36" fill="#ffffff" opacity="0.95"/>
      <circle cx="236" cy="600" r="36" fill="none" stroke="#b00020" stroke-width="6" opacity="0.6"/>

      <circle cx="788" cy="600" r="36" fill="#ffffff" opacity="0.95"/>
      <circle cx="788" cy="600" r="36" fill="none" stroke="#b00020" stroke-width="6" opacity="0.6"/>

      <circle cx="924" cy="600" r="36" fill="#ffffff" opacity="0.95"/>
      <circle cx="924" cy="600" r="36" fill="none" stroke="#b00020" stroke-width="6" opacity="0.6"/>
    </g>

    <g filter="url(#shadowB)">
      <path d="M 512 400 Q 550 310 620 270" stroke="#2d6a4f" stroke-width="18" fill="none" stroke-linecap="round"/>
      <path d="M 610 260 Q 680 210 740 260 Q 710 310 640 295 Z" fill="#52b788"/>
      <path d="M 640 290 L 710 255" stroke="#1b4332" stroke-width="4" fill="none" stroke-linecap="round"/>
      <circle cx="512" cy="580" r="200" fill="url(#cherryB)"/>
      <ellipse cx="450" cy="510" rx="55" ry="38" fill="#ffffff" opacity="0.65"/>
      <circle cx="530" cy="500" r="12" fill="#ffffff" opacity="0.55"/>
    </g>
  </g>
</svg>
